<?xml version="1.0" encoding="utf-8"?>
<!DOCTYPE svg PUBLIC "-//W3C//DTD SVG 1.1//EN" "http://www.w3.org/Graphics/SVG/1.1/DTD/svg11.dtd">
<svg version="1.1" id="favicon" xmlns="http://www.w3.org/2000/svg" xmlns:xlink="http://www.w3.org/1999/xlink" x="0px" y="0px" width="32px" height="32px" viewBox="0 0 32 32" enable-background="new 0 0 32 32" xml:space="preserve">
<rect fill="#8077FF" width="32" height="32"/>
<g>
<path fill="#FFFFFF" d="M26.463,27.475c0,1.1-0.9,2-2,2h-0.309c-1.1,0-2-0.9-2-2v-0.848c0-1.1-0.9-2-2-2h-9.037c-1.1,0-2,0.9-2,2v0.848c0,1.1-0.9,2-2,2H6.809c-1.1,0-2-0.9-2-2v-4.23c0-1.1,0.351-2,0.78-2s1.049-0.859,1.378-1.909c0,0,2.262-6.774,2.666-13.336c0.072-1.168,0.882-2.094,2.241-2.114h9.891c1.781,0,2.667,1.686,2.667,2.786v12.572c0,1.1,0.457,2,1.015,2s1.015,0.9,1.015,2V27.475z M17.876,21.244c1.1,0,2-0.9,2-2v-9.92c0-1.1-0.9-2-2-2h-2.035c-1.1,0-2.124,0.891-2.276,1.981c0,0-0.915,4.936-2.003,9.304c-0.342,1.372,0.391,2.594,2.031,2.641L17.876,21.244z"/>
</g>
</svg>
